<svg xmlns="http://www.w3.org/2000/svg" xmlns:xlink="http://www.w3.org/1999/xlink" version="1.0" x="0" y="0" width="2400" height="1020.6598082038499" viewBox="100.79300155639649 95.5680030822754 138.41399688720702 58.86400146484375" preserveAspectRatio="xMidYMid meet" color-interpolation-filters="sRGB"><g><defs><linearGradient id="92" x1="0%" y1="0%" x2="100%" y2="0%"><stop offset="0%" stop-color="#fa71cd"></stop> <stop offset="100%" stop-color="#9b59b6"></stop></linearGradient><linearGradient id="93" x1="0%" y1="0%" x2="100%" y2="0%"><stop offset="0%" stop-color="#f9d423"></stop> <stop offset="100%" stop-color="#f83600"></stop></linearGradient><linearGradient id="94" x1="0%" y1="0%" x2="100%" y2="0%"><stop offset="0%" stop-color="#0064d2"></stop> <stop offset="100%" stop-color="#1cb0f6"></stop></linearGradient><linearGradient id="95" x1="0%" y1="0%" x2="100%" y2="0%"><stop offset="0%" stop-color="#f00978"></stop> <stop offset="100%" stop-color="#3f51b1"></stop></linearGradient><linearGradient id="96" x1="0%" y1="0%" x2="100%" y2="0%"><stop offset="0%" stop-color="#7873f5"></stop> <stop offset="100%" stop-color="#ec77ab"></stop></linearGradient><linearGradient id="97" x1="0%" y1="0%" x2="100%" y2="0%"><stop offset="0%" stop-color="#f9d423"></stop> <stop offset="100%" stop-color="#e14fad"></stop></linearGradient><linearGradient id="98" x1="0%" y1="0%" x2="100%" y2="0%"><stop offset="0%" stop-color="#009efd"></stop> <stop offset="100%" stop-color="#2af598"></stop></linearGradient><linearGradient id="99" x1="0%" y1="0%" x2="100%" y2="0%"><stop offset="0%" stop-color="#ffcc00"></stop> <stop offset="100%" stop-color="#00b140"></stop></linearGradient><linearGradient id="100" x1="0%" y1="0%" x2="100%" y2="0%"><stop offset="0%" stop-color="#d51007"></stop> <stop offset="100%" stop-color="#ff8177"></stop></linearGradient><linearGradient id="102" x1="0%" y1="0%" x2="100%" y2="0%"><stop offset="0%" stop-color="#a2b6df"></stop> <stop offset="100%" stop-color="#0c3483"></stop></linearGradient><linearGradient id="103" x1="0%" y1="0%" x2="100%" y2="0%"><stop offset="0%" stop-color="#7ac5d8"></stop> <stop offset="100%" stop-color="#eea2a2"></stop></linearGradient><linearGradient id="104" x1="0%" y1="0%" x2="100%" y2="0%"><stop offset="0%" stop-color="#00ecbc"></stop> <stop offset="100%" stop-color="#007adf"></stop></linearGradient><linearGradient id="105" x1="0%" y1="0%" x2="100%" y2="0%"><stop offset="0%" stop-color="#b88746"></stop> <stop offset="100%" stop-color="#fdf5a6"></stop></linearGradient></defs><g fill="#ffffff" class="iconbordersvg" transform="translate(102.1500015258789,96.92499923706055)"><g><g><rect stroke-width="0" class="i-icon-bg" x="0" y="0" width="135.6999969482422" height="56.150001525878906" fill-opacity="0" stroke="rgb(255, 255, 255)"></rect> </g> <g transform="translate(0,0)"><g hollow-target="black" transform="translate(0,0)" mask="url(#90de9dc3-6b7d-4c5e-a5a5-4b9013e1c09d)"><g><rect stroke-width="2" class="i-icon-bg"></rect> <polyline stroke-width="0" fill="#ffffff" x="0" y="0" width="76" height="56.150001525878906" fill-opacity="1" stroke="rgb(255, 255, 255)" points="10,0 76,0 66,56.150001525878906 0,56.150001525878906, 10,0"></polyline> </g> <g transform="translate(15,5.075000762939453)"><g class="iconsvg-imagesvg"><g> <svg filter="url(#colors2245569016)" x="0" y="0" width="46" height="46" filtersec="colorsb1962912434" class="image-svg-svg primary" style="overflow: visible;"><svg xmlns="http://www.w3.org/2000/svg" viewBox="0.7999999999999998 0.7999999999999998 91.09999 91.1"><path d="M45.1 21.5L11.6 55M37 47l26.8-26.8m-8.1 25.6L29 72.5m52.2-34.8L47.6 71.3m42.3-24.9L46.4 2.8 2.8 46.4l43.5 43.5 43.6-43.5zM45.1 21.5L11.6 55M37 47l26.8-26.8m-8.1 25.6L29 72.5m52.2-34.8L47.6 71.3m42.3-24.9L46.4 2.8 2.8 46.4l43.5 43.5 43.6-43.5z" fill="none" stroke="#333" stroke-width="4" stroke-miterlimit="10"></path></svg></svg> <defs><filter id="colors2245569016"><feColorMatrix type="matrix" values="0 0 0 0 0.99609375  0 0 0 0 0.99609375  0 0 0 0 0.99609375  0 0 0 1 0" class="icon-feColorMatrix "></feColorMatrix></filter> <filter id="colorsf2525843578"><feColorMatrix type="matrix" values="0 0 0 0 0.99609375  0 0 0 0 0.99609375  0 0 0 0 0.99609375  0 0 0 1 0" class="icon-fecolormatrix"></feColorMatrix></filter> <filter id="colorsb1962912434"><feColorMatrix type="matrix" values="0 0 0 0 0  0 0 0 0 0  0 0 0 0 0  0 0 0 1 0" class="icon-fecolormatrix"></feColorMatrix></filter></defs></g></g></g></g> <g transform="translate(78,0)" mask="url(#84f37559-9a92-4cd6-b762-235263f72767)"><g><rect stroke-width="2" class="i-icon-bg"></rect> <polyline stroke-width="0" x="0" y="0" width="47.70000076293945" height="56.150001525878906" fill-opacity="1" stroke="rgb(255, 255, 255)" points="0,0 57.70000076293945,0 47.70000076293945,56.150001525878906 -10,56.150001525878906, 0,0"></polyline> </g> <g transform="translate(5,5)"><g fill-rule="" class="tp-name"><g transform="scale(1)"><g><path d="M35.69-46.15L3.51-46.15C1.43-46.15 0.78-45.44 0.78-43.42L0.78-37.57C0.78-35.49 1.43-34.77 3.51-34.77L13.2-34.77 13.2-2.73C13.2-0.72 13.85 0 15.93 0L23.27 0C25.35 0 26.07-0.72 26.07-2.73L26.07-34.77 35.69-34.77C37.77-34.77 38.48-35.49 38.48-37.57L38.48-43.42C38.48-45.44 37.77-46.15 35.69-46.15Z" transform="translate(-0.7799999713897705, 46.150001525878906)"></path></g> </g></g> </g></g></g></g></g><mask id="90de9dc3-6b7d-4c5e-a5a5-4b9013e1c09d"><g fill="white"><rect stroke-width="2" class="i-icon-bg"></rect> <polyline stroke-width="0" x="0" y="0" width="76" height="56.150001525878906" fill-opacity="1" stroke="rgb(255, 255, 255)" points="10,0 76,0 66,56.150001525878906 0,56.150001525878906, 10,0"></polyline> </g> <g transform="translate(15,5.075000762939453)" fill="black"><g class="iconsvg-imagesvg"><g> <svg x="0" y="0" width="46" height="46" class="image-svg-svg primary" style="overflow: visible;" filter="url(#colorsb1962912434)"><svg xmlns="http://www.w3.org/2000/svg" viewBox="0.7999999999999998 0.7999999999999998 91.09999 91.1"><path d="M45.1 21.5L11.6 55M37 47l26.8-26.8m-8.1 25.6L29 72.5m52.2-34.8L47.6 71.3m42.3-24.9L46.4 2.8 2.8 46.4l43.5 43.5 43.6-43.5zM45.1 21.5L11.6 55M37 47l26.8-26.8m-8.1 25.6L29 72.5m52.2-34.8L47.6 71.3m42.3-24.9L46.4 2.8 2.8 46.4l43.5 43.5 43.6-43.5z" fill="none" stroke="#333" stroke-width="4" stroke-miterlimit="10"></path></svg></svg> <defs> </defs></g></g></g></mask><mask id="84f37559-9a92-4cd6-b762-235263f72767"><g fill="white"><rect stroke-width="2" class="i-icon-bg"></rect> <polyline stroke-width="0" x="0" y="0" width="47.70000076293945" height="56.150001525878906" fill-opacity="1" stroke="rgb(255, 255, 255)" points="0,0 57.70000076293945,0 47.70000076293945,56.150001525878906 -10,56.150001525878906, 0,0"></polyline> </g> <g transform="translate(5,5)" fill="black"><g fill-rule="" class="tp-name"><g transform="scale(1)"><g><path d="M35.69-46.15L3.51-46.15C1.43-46.15 0.78-45.44 0.78-43.42L0.78-37.57C0.78-35.49 1.43-34.77 3.51-34.77L13.2-34.77 13.2-2.73C13.2-0.72 13.85 0 15.93 0L23.27 0C25.35 0 26.07-0.72 26.07-2.73L26.07-34.77 35.69-34.77C37.77-34.77 38.48-35.49 38.48-37.57L38.48-43.42C38.48-45.44 37.77-46.15 35.69-46.15Z" transform="translate(-0.7799999713897705, 46.150001525878906)"></path></g> </g></g> </g></mask><defs v-gra="od"></defs></g></svg>