<svg xmlns="http://www.w3.org/2000/svg" xmlns:xlink="http://www.w3.org/1999/xlink" version="1.0" x="0" y="0" width="2400" height="651.704880421537" viewBox="45.54372009277344 91.20468505859375 248.91255981445312 67.59063751220702" preserveAspectRatio="xMidYMid meet" color-interpolation-filters="sRGB"><g><defs><linearGradient id="92" x1="0%" y1="0%" x2="100%" y2="0%"><stop offset="0%" stop-color="#fa71cd"></stop> <stop offset="100%" stop-color="#9b59b6"></stop></linearGradient><linearGradient id="93" x1="0%" y1="0%" x2="100%" y2="0%"><stop offset="0%" stop-color="#f9d423"></stop> <stop offset="100%" stop-color="#f83600"></stop></linearGradient><linearGradient id="94" x1="0%" y1="0%" x2="100%" y2="0%"><stop offset="0%" stop-color="#0064d2"></stop> <stop offset="100%" stop-color="#1cb0f6"></stop></linearGradient><linearGradient id="95" x1="0%" y1="0%" x2="100%" y2="0%"><stop offset="0%" stop-color="#f00978"></stop> <stop offset="100%" stop-color="#3f51b1"></stop></linearGradient><linearGradient id="96" x1="0%" y1="0%" x2="100%" y2="0%"><stop offset="0%" stop-color="#7873f5"></stop> <stop offset="100%" stop-color="#ec77ab"></stop></linearGradient><linearGradient id="97" x1="0%" y1="0%" x2="100%" y2="0%"><stop offset="0%" stop-color="#f9d423"></stop> <stop offset="100%" stop-color="#e14fad"></stop></linearGradient><linearGradient id="98" x1="0%" y1="0%" x2="100%" y2="0%"><stop offset="0%" stop-color="#009efd"></stop> <stop offset="100%" stop-color="#2af598"></stop></linearGradient><linearGradient id="99" x1="0%" y1="0%" x2="100%" y2="0%"><stop offset="0%" stop-color="#ffcc00"></stop> <stop offset="100%" stop-color="#00b140"></stop></linearGradient><linearGradient id="100" x1="0%" y1="0%" x2="100%" y2="0%"><stop offset="0%" stop-color="#d51007"></stop> <stop offset="100%" stop-color="#ff8177"></stop></linearGradient><linearGradient id="102" x1="0%" y1="0%" x2="100%" y2="0%"><stop offset="0%" stop-color="#a2b6df"></stop> <stop offset="100%" stop-color="#0c3483"></stop></linearGradient><linearGradient id="103" x1="0%" y1="0%" x2="100%" y2="0%"><stop offset="0%" stop-color="#7ac5d8"></stop> <stop offset="100%" stop-color="#eea2a2"></stop></linearGradient><linearGradient id="104" x1="0%" y1="0%" x2="100%" y2="0%"><stop offset="0%" stop-color="#00ecbc"></stop> <stop offset="100%" stop-color="#007adf"></stop></linearGradient><linearGradient id="105" x1="0%" y1="0%" x2="100%" y2="0%"><stop offset="0%" stop-color="#b88746"></stop> <stop offset="100%" stop-color="#fdf5a6"></stop></linearGradient></defs><g fill="#1B065E" class="iconblsvg-g iconsvg" transform="translate(47.984039306640625,93.64500045776367)"><g class="tp-name"><g transform="translate(0, 0)"><g transform="scale(1)"><path d="M31.61 0L12.41 0 12.41-5.55 17.36-6.51 17.36-39.07 8.95-39.07 8.44-33.55 1.43-33.55 1.43-46.21 42.66-46.21 42.66-33.55 35.61-33.55 35.1-39.07 26.63-39.07 26.63-6.51 31.61-5.55 31.61 0ZM62.87 0L44.72 0 44.72-5.55 49.16-6.51 49.16-27.8 44.24-28.75 44.24-34.34 57.8-34.34 58.14-30.09 58.21-29.33Q59.48-32.12 61.35-33.55 63.22-34.98 65.83-34.98L65.83-34.98Q66.65-34.98 67.63-34.83 68.62-34.69 69.38-34.47L69.38-34.47 68.4-25.93 63.79-26.18Q61.83-26.28 60.6-25.52 59.38-24.76 58.43-23.33L58.43-23.33 58.43-6.51 62.87-5.55 62.87 0ZM102.64 0L72.93 0 72.93-5.46 90.8-27.87 81.54-27.87 80.49-21.99 73.7-21.99 73.7-34.34 101.91-34.34 101.91-28.41 85.06-6.63 94.77-6.63 96.14-12.95 102.64-12.95 102.64 0Z" transform="translate(-1.4300000667572021, 49.5099983215332)"></path></g></g> <g transform="translate(104.20999908447266, 3.0955944061279297)"><g><g fill="#1B065E" class="imagesvg"><rect fill="#1B065E" fill-opacity="0" stroke-width="2" x="0" y="0" width="56.5219356" height="56.5219356" class="image-rect"></rect> <svg viewBox="0 0 60 64.56611570247934" x="0" y="0" width="56.5219356" height="56.5219356" class="image-svg-svg bn" style="overflow: visible;"><g hollow-target="iconBnOutline"><g mask="url(#e7cc90d1-1b4c-4d8d-bc71-af64fd9754e5)"><svg xmlns="http://www.w3.org/2000/svg" viewBox="0.699 0.40356 86.60201 93.19289" style="overflow: visible;" width="60" height="64.56611570247934" x="0" y="0" filtersec="colorsf9544712923" filter="url(#axFkKPCp2rGSNBxtjb7y7)"><g transform="scale(1, 1) skewX(0)"><path d="M55 3.35l21.301 12.3a22 22 0 0 1 11 19.052v24.596a22 22 0 0 1-11 19.053L55 90.649a22 22 0 0 1-22 0L11.699 78.351a22 22 0 0 1-11-19.053V34.702a22 22 0 0 1 11-19.053L33 3.351a22 22 0 0 1 22 0z" fill-rule="evenodd"></path></g><defs><filter id="axFkKPCp2rGSNBxtjb7y7"><feColorMatrix type="matrix" values="0 0 0 0 0.10546875  0 0 0 0 0.0234375  0 0 0 0 0.3671875  0 0 0 1 0"></feColorMatrix></filter></defs></svg></g> <g filter="url(#colors1970176781)"><svg xmlns="http://www.w3.org/2000/svg" xmlns:xlink="http://www.w3.org/1999/xlink" xmlns:serif="http://www.serif.com/" viewBox="4.48799991607666 5.845000267028809 87.02400207519531 85.26599884033203" version="1.1" xml:space="preserve" style="" x="10" y="10.761017851239668" fill-rule="evenodd" clip-rule="evenodd" stroke-linejoin="round" stroke-miterlimit="2" width="40" height="43.04408" class="image-svg-icon"><path d="M91.512,57.136L4.488,57.136L4.488,62.047C4.488,65.497 7.285,68.294 10.735,68.294L85.265,68.294C88.715,68.294 91.512,65.497 91.512,62.047L91.512,57.136ZM44.565,63.35C43.864,63.35 43.296,62.782 43.296,62.081C43.296,61.38 43.864,60.812 44.565,60.812L51.435,60.812C52.136,60.812 52.704,61.38 52.704,62.081C52.704,62.782 52.136,63.35 51.435,63.35L44.565,63.35ZM23.931,15.249C23.295,14.363 22.461,14.363 21.825,15.249C20.999,16.399 20.999,18.414 21.825,19.564C22.461,20.451 23.295,20.451 23.931,19.564C24.757,18.414 24.757,16.399 23.931,15.249M25.984,13.772C24.333,11.473 21.423,11.473 19.773,13.772C18.301,15.821 18.301,18.992 19.773,21.042C21.423,23.341 24.333,23.341 25.984,21.042C27.455,18.992 27.455,15.821 25.984,13.772M29.983,13.311L29.983,21.503C29.983,22.204 30.551,22.772 31.252,22.772C31.953,22.772 32.521,22.204 32.521,21.503L32.521,13.311C32.521,12.61 31.953,12.042 31.252,12.042C30.551,12.042 29.983,12.61 29.983,13.311M40.679,15.249C40.043,14.363 39.209,14.363 38.573,15.249C37.747,16.399 37.747,18.414 38.573,19.564C39.209,20.451 40.043,20.451 40.679,19.564C41.505,18.414 41.505,16.399 40.679,15.249M42.732,13.772C41.081,11.473 38.171,11.473 36.52,13.772C35.049,15.821 35.049,18.992 36.52,21.042C38.171,23.341 41.081,23.341 42.732,21.042C44.203,18.992 44.203,15.821 42.732,13.772M46.731,13.311L46.731,21.503C46.731,22.204 47.299,22.772 48,22.772C48.701,22.772 49.269,22.204 49.269,21.503L49.269,13.311C49.269,12.61 48.701,12.042 48,12.042C47.299,12.042 46.731,12.61 46.731,13.311M13.235,13.311L13.235,21.503C13.235,22.204 13.803,22.772 14.504,22.772C15.205,22.772 15.773,22.204 15.773,21.503L15.773,13.311C15.773,12.61 15.205,12.042 14.504,12.042C13.803,12.042 13.235,12.61 13.235,13.311M57.427,15.249C56.791,14.363 55.957,14.363 55.321,15.249C54.495,16.399 54.495,18.414 55.321,19.564C55.957,20.451 56.791,20.451 57.427,19.564C58.253,18.414 58.253,16.399 57.427,15.249M59.48,13.772C57.829,11.473 54.919,11.473 53.268,13.772C51.797,15.821 51.797,18.992 53.268,21.042C54.919,23.341 57.829,23.341 59.48,21.042C60.951,18.992 60.951,15.821 59.48,13.772M63.479,13.311L63.479,21.503C63.479,22.204 64.047,22.772 64.748,22.772C65.449,22.772 66.017,22.204 66.017,21.503L66.017,13.311C66.017,12.61 65.449,12.042 64.748,12.042C64.047,12.042 63.479,12.61 63.479,13.311M74.175,15.249C73.539,14.363 72.705,14.363 72.068,15.249C71.243,16.399 71.243,18.414 72.068,19.564C72.705,20.451 73.539,20.451 74.175,19.564C75.001,18.414 75.001,16.399 74.175,15.249M76.227,13.772C74.577,11.473 71.667,11.473 70.016,13.772C68.545,15.821 68.545,18.992 70.016,21.042C71.667,23.341 74.577,23.341 76.227,21.042C77.699,18.992 77.699,15.821 76.227,13.772M80.227,13.311L80.227,21.503C80.227,22.204 80.795,22.772 81.496,22.772C82.197,22.772 82.765,22.204 82.765,21.503L82.765,13.311C82.765,12.61 82.197,12.042 81.496,12.042C80.795,12.042 80.227,12.61 80.227,13.311M32.305,28.698C31.669,27.812 30.835,27.812 30.199,28.698C29.373,29.848 29.373,31.864 30.199,33.014C30.835,33.9 31.669,33.9 32.305,33.014C33.131,31.864 33.131,29.848 32.305,28.698M34.358,27.221C32.707,24.922 29.797,24.922 28.147,27.221C26.675,29.27 26.675,32.441 28.147,34.491C29.797,36.79 32.707,36.79 34.358,34.491C35.829,32.441 35.829,29.27 34.358,27.221M38.357,26.76L38.357,34.952C38.357,35.653 38.925,36.221 39.626,36.221C40.327,36.221 40.895,35.653 40.895,34.952L40.895,26.76C40.895,26.059 40.327,25.491 39.626,25.491C38.925,25.491 38.357,26.059 38.357,26.76M49.053,28.698C48.417,27.812 47.583,27.812 46.947,28.698C46.121,29.848 46.121,31.864 46.947,33.014C47.583,33.9 48.417,33.9 49.053,33.014C49.879,31.864 49.879,29.848 49.053,28.698M51.105,27.221C49.455,24.922 46.545,24.922 44.894,27.221C43.423,29.27 43.423,32.441 44.894,34.491C46.545,36.79 49.455,36.79 51.105,34.491C52.577,32.441 52.577,29.271 51.105,27.221M55.105,26.76L55.105,34.952C55.105,35.653 55.673,36.221 56.374,36.221C57.075,36.221 57.643,35.653 57.643,34.952L57.643,26.76C57.643,26.059 57.075,25.491 56.374,25.491C55.673,25.491 55.105,26.059 55.105,26.76M21.609,26.76L21.609,34.952C21.609,35.653 22.177,36.221 22.878,36.221C23.579,36.221 24.147,35.653 24.147,34.952L24.147,26.76C24.147,26.059 23.579,25.491 22.878,25.491C22.177,25.491 21.609,26.059 21.609,26.76M65.801,28.698C65.165,27.812 64.331,27.812 63.695,28.698C62.869,29.848 62.869,31.864 63.695,33.014C64.331,33.9 65.165,33.9 65.801,33.014C66.627,31.864 66.627,29.848 65.801,28.698M67.854,27.221C66.203,24.922 63.293,24.922 61.642,27.221C60.171,29.27 60.171,32.441 61.642,34.491C63.293,36.79 66.203,36.79 67.854,34.491C69.325,32.441 69.325,29.271 67.854,27.221M71.853,26.76L71.853,34.952C71.853,35.653 72.421,36.221 73.122,36.221C73.823,36.221 74.391,35.653 74.391,34.952L74.391,26.76C74.391,26.059 73.823,25.491 73.122,25.491C72.421,25.491 71.853,26.059 71.853,26.76M23.931,42.147C23.295,41.261 22.461,41.261 21.825,42.147C20.999,43.297 20.999,45.313 21.825,46.463C22.461,47.349 23.295,47.349 23.931,46.463C24.757,45.313 24.757,43.297 23.931,42.147M25.984,40.67C24.333,38.371 21.423,38.371 19.773,40.67C18.301,42.72 18.301,45.89 19.773,47.94C21.423,50.239 24.333,50.239 25.984,47.94C27.455,45.89 27.455,42.72 25.984,40.67M29.983,40.209L29.983,48.401C29.983,49.102 30.551,49.67 31.252,49.67C31.953,49.67 32.521,49.102 32.521,48.401L32.521,40.209C32.521,39.508 31.953,38.94 31.252,38.94C30.551,38.94 29.983,39.508 29.983,40.209M40.679,42.147C40.043,41.261 39.209,41.261 38.573,42.147C37.747,43.297 37.747,45.313 38.573,46.463C39.209,47.349 40.043,47.349 40.679,46.463C41.505,45.313 41.505,43.297 40.679,42.147M42.732,40.67C41.081,38.371 38.171,38.371 36.52,40.67C35.049,42.72 35.049,45.89 36.52,47.94C38.171,50.239 41.081,50.239 42.732,47.94C44.203,45.89 44.203,42.72 42.732,40.67M46.731,40.209L46.731,48.401C46.731,49.102 47.299,49.67 48,49.67C48.701,49.67 49.269,49.102 49.269,48.401L49.269,40.209C49.269,39.508 48.701,38.94 48,38.94C47.299,38.94 46.731,39.508 46.731,40.209M13.235,40.209L13.235,48.401C13.235,49.102 13.803,49.67 14.504,49.67C15.205,49.67 15.773,49.102 15.773,48.401L15.773,40.209C15.773,39.508 15.205,38.94 14.504,38.94C13.803,38.94 13.235,39.508 13.235,40.209M57.427,42.147C56.791,41.261 55.957,41.261 55.321,42.147C54.495,43.297 54.495,45.313 55.321,46.463C55.957,47.349 56.791,47.349 57.427,46.463C58.253,45.313 58.253,43.297 57.427,42.147M59.48,40.67C57.829,38.371 54.919,38.371 53.268,40.67C51.797,42.72 51.797,45.89 53.268,47.94C54.919,50.239 57.829,50.239 59.48,47.94C60.951,45.89 60.951,42.72 59.48,40.67M63.479,40.209L63.479,48.401C63.479,49.102 64.047,49.67 64.748,49.67C65.449,49.67 66.017,49.102 66.017,48.401L66.017,40.209C66.017,39.508 65.449,38.94 64.748,38.94C64.047,38.94 63.479,39.508 63.479,40.209M74.175,42.147C73.539,41.261 72.705,41.261 72.068,42.147C71.243,43.297 71.243,45.313 72.068,46.463C72.705,47.349 73.539,47.349 74.175,46.463C75.001,45.313 75.001,43.297 74.175,42.147M76.227,40.67C74.577,38.371 71.667,38.371 70.016,40.67C68.545,42.72 68.545,45.89 70.016,47.94C71.667,50.239 74.577,50.239 76.227,47.94C77.699,45.89 77.699,42.72 76.227,40.67M80.227,40.209L80.227,48.401C80.227,49.102 80.795,49.67 81.496,49.67C82.197,49.67 82.765,49.102 82.765,48.401L82.765,40.209C82.765,39.508 82.197,38.94 81.496,38.94C80.795,38.94 80.227,39.508 80.227,40.209M27.659,83.505L68.341,83.505C70.433,83.505 72.144,85.216 72.144,87.308C72.144,89.4 70.433,91.111 68.341,91.111L27.659,91.111C25.567,91.111 23.856,89.4 23.856,87.308C23.856,85.216 25.567,83.505 27.659,83.505M34.783,80.967C35.779,78.126 36.514,74.447 36.688,70.832L59.131,70.832C59.343,74.447 60.143,78.126 61.181,80.967L34.783,80.967ZM86.923,5.845C89.457,5.845 91.512,7.9 91.512,10.435L91.512,54.598L4.488,54.598L4.488,12.092C4.488,8.642 7.285,5.845 10.735,5.845L86.923,5.845Z"></path></svg></g></g><mask id="e7cc90d1-1b4c-4d8d-bc71-af64fd9754e5"><g fill="white"><svg xmlns="http://www.w3.org/2000/svg" viewBox="0.699 0.40356 86.60201 93.19289" style="overflow: visible;" width="60" height="64.56611570247934" x="0" y="0" filtersec="colorsf9544712923"><g transform="scale(1, 1) skewX(0)"><path d="M55 3.35l21.301 12.3a22 22 0 0 1 11 19.052v24.596a22 22 0 0 1-11 19.053L55 90.649a22 22 0 0 1-22 0L11.699 78.351a22 22 0 0 1-11-19.053V34.702a22 22 0 0 1 11-19.053L33 3.351a22 22 0 0 1 22 0z" fill-rule="evenodd"></path></g><defs></defs></svg></g> <g fill="black" filter="url(#96faff69-1666-44ce-b783-3d9fc5bae052)"><svg xmlns="http://www.w3.org/2000/svg" xmlns:xlink="http://www.w3.org/1999/xlink" xmlns:serif="http://www.serif.com/" viewBox="4.48799991607666 5.845000267028809 87.02400207519531 85.26599884033203" version="1.1" xml:space="preserve" style="" x="10" y="10.761017851239668" fill-rule="evenodd" clip-rule="evenodd" stroke-linejoin="round" stroke-miterlimit="2" width="40" height="43.04408" class="image-svg-icon"><path d="M91.512,57.136L4.488,57.136L4.488,62.047C4.488,65.497 7.285,68.294 10.735,68.294L85.265,68.294C88.715,68.294 91.512,65.497 91.512,62.047L91.512,57.136ZM44.565,63.35C43.864,63.35 43.296,62.782 43.296,62.081C43.296,61.38 43.864,60.812 44.565,60.812L51.435,60.812C52.136,60.812 52.704,61.38 52.704,62.081C52.704,62.782 52.136,63.35 51.435,63.35L44.565,63.35ZM23.931,15.249C23.295,14.363 22.461,14.363 21.825,15.249C20.999,16.399 20.999,18.414 21.825,19.564C22.461,20.451 23.295,20.451 23.931,19.564C24.757,18.414 24.757,16.399 23.931,15.249M25.984,13.772C24.333,11.473 21.423,11.473 19.773,13.772C18.301,15.821 18.301,18.992 19.773,21.042C21.423,23.341 24.333,23.341 25.984,21.042C27.455,18.992 27.455,15.821 25.984,13.772M29.983,13.311L29.983,21.503C29.983,22.204 30.551,22.772 31.252,22.772C31.953,22.772 32.521,22.204 32.521,21.503L32.521,13.311C32.521,12.61 31.953,12.042 31.252,12.042C30.551,12.042 29.983,12.61 29.983,13.311M40.679,15.249C40.043,14.363 39.209,14.363 38.573,15.249C37.747,16.399 37.747,18.414 38.573,19.564C39.209,20.451 40.043,20.451 40.679,19.564C41.505,18.414 41.505,16.399 40.679,15.249M42.732,13.772C41.081,11.473 38.171,11.473 36.52,13.772C35.049,15.821 35.049,18.992 36.52,21.042C38.171,23.341 41.081,23.341 42.732,21.042C44.203,18.992 44.203,15.821 42.732,13.772M46.731,13.311L46.731,21.503C46.731,22.204 47.299,22.772 48,22.772C48.701,22.772 49.269,22.204 49.269,21.503L49.269,13.311C49.269,12.61 48.701,12.042 48,12.042C47.299,12.042 46.731,12.61 46.731,13.311M13.235,13.311L13.235,21.503C13.235,22.204 13.803,22.772 14.504,22.772C15.205,22.772 15.773,22.204 15.773,21.503L15.773,13.311C15.773,12.61 15.205,12.042 14.504,12.042C13.803,12.042 13.235,12.61 13.235,13.311M57.427,15.249C56.791,14.363 55.957,14.363 55.321,15.249C54.495,16.399 54.495,18.414 55.321,19.564C55.957,20.451 56.791,20.451 57.427,19.564C58.253,18.414 58.253,16.399 57.427,15.249M59.48,13.772C57.829,11.473 54.919,11.473 53.268,13.772C51.797,15.821 51.797,18.992 53.268,21.042C54.919,23.341 57.829,23.341 59.48,21.042C60.951,18.992 60.951,15.821 59.48,13.772M63.479,13.311L63.479,21.503C63.479,22.204 64.047,22.772 64.748,22.772C65.449,22.772 66.017,22.204 66.017,21.503L66.017,13.311C66.017,12.61 65.449,12.042 64.748,12.042C64.047,12.042 63.479,12.61 63.479,13.311M74.175,15.249C73.539,14.363 72.705,14.363 72.068,15.249C71.243,16.399 71.243,18.414 72.068,19.564C72.705,20.451 73.539,20.451 74.175,19.564C75.001,18.414 75.001,16.399 74.175,15.249M76.227,13.772C74.577,11.473 71.667,11.473 70.016,13.772C68.545,15.821 68.545,18.992 70.016,21.042C71.667,23.341 74.577,23.341 76.227,21.042C77.699,18.992 77.699,15.821 76.227,13.772M80.227,13.311L80.227,21.503C80.227,22.204 80.795,22.772 81.496,22.772C82.197,22.772 82.765,22.204 82.765,21.503L82.765,13.311C82.765,12.61 82.197,12.042 81.496,12.042C80.795,12.042 80.227,12.61 80.227,13.311M32.305,28.698C31.669,27.812 30.835,27.812 30.199,28.698C29.373,29.848 29.373,31.864 30.199,33.014C30.835,33.9 31.669,33.9 32.305,33.014C33.131,31.864 33.131,29.848 32.305,28.698M34.358,27.221C32.707,24.922 29.797,24.922 28.147,27.221C26.675,29.27 26.675,32.441 28.147,34.491C29.797,36.79 32.707,36.79 34.358,34.491C35.829,32.441 35.829,29.27 34.358,27.221M38.357,26.76L38.357,34.952C38.357,35.653 38.925,36.221 39.626,36.221C40.327,36.221 40.895,35.653 40.895,34.952L40.895,26.76C40.895,26.059 40.327,25.491 39.626,25.491C38.925,25.491 38.357,26.059 38.357,26.76M49.053,28.698C48.417,27.812 47.583,27.812 46.947,28.698C46.121,29.848 46.121,31.864 46.947,33.014C47.583,33.9 48.417,33.9 49.053,33.014C49.879,31.864 49.879,29.848 49.053,28.698M51.105,27.221C49.455,24.922 46.545,24.922 44.894,27.221C43.423,29.27 43.423,32.441 44.894,34.491C46.545,36.79 49.455,36.79 51.105,34.491C52.577,32.441 52.577,29.271 51.105,27.221M55.105,26.76L55.105,34.952C55.105,35.653 55.673,36.221 56.374,36.221C57.075,36.221 57.643,35.653 57.643,34.952L57.643,26.76C57.643,26.059 57.075,25.491 56.374,25.491C55.673,25.491 55.105,26.059 55.105,26.76M21.609,26.76L21.609,34.952C21.609,35.653 22.177,36.221 22.878,36.221C23.579,36.221 24.147,35.653 24.147,34.952L24.147,26.76C24.147,26.059 23.579,25.491 22.878,25.491C22.177,25.491 21.609,26.059 21.609,26.76M65.801,28.698C65.165,27.812 64.331,27.812 63.695,28.698C62.869,29.848 62.869,31.864 63.695,33.014C64.331,33.9 65.165,33.9 65.801,33.014C66.627,31.864 66.627,29.848 65.801,28.698M67.854,27.221C66.203,24.922 63.293,24.922 61.642,27.221C60.171,29.27 60.171,32.441 61.642,34.491C63.293,36.79 66.203,36.79 67.854,34.491C69.325,32.441 69.325,29.271 67.854,27.221M71.853,26.76L71.853,34.952C71.853,35.653 72.421,36.221 73.122,36.221C73.823,36.221 74.391,35.653 74.391,34.952L74.391,26.76C74.391,26.059 73.823,25.491 73.122,25.491C72.421,25.491 71.853,26.059 71.853,26.76M23.931,42.147C23.295,41.261 22.461,41.261 21.825,42.147C20.999,43.297 20.999,45.313 21.825,46.463C22.461,47.349 23.295,47.349 23.931,46.463C24.757,45.313 24.757,43.297 23.931,42.147M25.984,40.67C24.333,38.371 21.423,38.371 19.773,40.67C18.301,42.72 18.301,45.89 19.773,47.94C21.423,50.239 24.333,50.239 25.984,47.94C27.455,45.89 27.455,42.72 25.984,40.67M29.983,40.209L29.983,48.401C29.983,49.102 30.551,49.67 31.252,49.67C31.953,49.67 32.521,49.102 32.521,48.401L32.521,40.209C32.521,39.508 31.953,38.94 31.252,38.94C30.551,38.94 29.983,39.508 29.983,40.209M40.679,42.147C40.043,41.261 39.209,41.261 38.573,42.147C37.747,43.297 37.747,45.313 38.573,46.463C39.209,47.349 40.043,47.349 40.679,46.463C41.505,45.313 41.505,43.297 40.679,42.147M42.732,40.67C41.081,38.371 38.171,38.371 36.52,40.67C35.049,42.72 35.049,45.89 36.52,47.94C38.171,50.239 41.081,50.239 42.732,47.94C44.203,45.89 44.203,42.72 42.732,40.67M46.731,40.209L46.731,48.401C46.731,49.102 47.299,49.67 48,49.67C48.701,49.67 49.269,49.102 49.269,48.401L49.269,40.209C49.269,39.508 48.701,38.94 48,38.94C47.299,38.94 46.731,39.508 46.731,40.209M13.235,40.209L13.235,48.401C13.235,49.102 13.803,49.67 14.504,49.67C15.205,49.67 15.773,49.102 15.773,48.401L15.773,40.209C15.773,39.508 15.205,38.94 14.504,38.94C13.803,38.94 13.235,39.508 13.235,40.209M57.427,42.147C56.791,41.261 55.957,41.261 55.321,42.147C54.495,43.297 54.495,45.313 55.321,46.463C55.957,47.349 56.791,47.349 57.427,46.463C58.253,45.313 58.253,43.297 57.427,42.147M59.48,40.67C57.829,38.371 54.919,38.371 53.268,40.67C51.797,42.72 51.797,45.89 53.268,47.94C54.919,50.239 57.829,50.239 59.48,47.94C60.951,45.89 60.951,42.72 59.48,40.67M63.479,40.209L63.479,48.401C63.479,49.102 64.047,49.67 64.748,49.67C65.449,49.67 66.017,49.102 66.017,48.401L66.017,40.209C66.017,39.508 65.449,38.94 64.748,38.94C64.047,38.94 63.479,39.508 63.479,40.209M74.175,42.147C73.539,41.261 72.705,41.261 72.068,42.147C71.243,43.297 71.243,45.313 72.068,46.463C72.705,47.349 73.539,47.349 74.175,46.463C75.001,45.313 75.001,43.297 74.175,42.147M76.227,40.67C74.577,38.371 71.667,38.371 70.016,40.67C68.545,42.72 68.545,45.89 70.016,47.94C71.667,50.239 74.577,50.239 76.227,47.94C77.699,45.89 77.699,42.72 76.227,40.67M80.227,40.209L80.227,48.401C80.227,49.102 80.795,49.67 81.496,49.67C82.197,49.67 82.765,49.102 82.765,48.401L82.765,40.209C82.765,39.508 82.197,38.94 81.496,38.94C80.795,38.94 80.227,39.508 80.227,40.209M27.659,83.505L68.341,83.505C70.433,83.505 72.144,85.216 72.144,87.308C72.144,89.4 70.433,91.111 68.341,91.111L27.659,91.111C25.567,91.111 23.856,89.4 23.856,87.308C23.856,85.216 25.567,83.505 27.659,83.505M34.783,80.967C35.779,78.126 36.514,74.447 36.688,70.832L59.131,70.832C59.343,74.447 60.143,78.126 61.181,80.967L34.783,80.967ZM86.923,5.845C89.457,5.845 91.512,7.9 91.512,10.435L91.512,54.598L4.488,54.598L4.488,12.092C4.488,8.642 7.285,5.845 10.735,5.845L86.923,5.845Z"></path></svg></g><defs><filter id="96faff69-1666-44ce-b783-3d9fc5bae052"><feGaussianBlur in="SourceGraphic" stdDeviation="1.26"></feGaussianBlur><feComponentTransfer><feFuncA type="discrete" tableValues="0 1 1 1 1 1 1 1 1 1 1 1 1 1 0"></feFuncA></feComponentTransfer></filter></defs></mask></svg> <defs><filter id="colors1970176781"><feColorMatrix type="matrix" values="0 0 0 0 0.10546875  0 0 0 0 0.0234375  0 0 0 0 0.3671875  0 0 0 1 0" class="icon-feColorMatrix "></feColorMatrix></filter> <filter id="colorsf9544712923"><feColorMatrix type="matrix" values="0 0 0 0 0.99609375  0 0 0 0 0.99609375  0 0 0 0 0.99609375  0 0 0 1 0" class="icon-fecolormatrix"></feColorMatrix></filter> <filter id="colorsb4172280640"><feColorMatrix type="matrix" values="0 0 0 0 0  0 0 0 0 0  0 0 0 0 0  0 0 0 1 0" class="icon-fecolormatrix"></feColorMatrix></filter></defs></g></g></g> <g fill="#1B065E" transform="translate(163.73193359375, 0)"><g transform="scale(1)"><path d="M19.96 13.2L1.78 13.2 1.78 7.62 6.25 6.67 6.25-27.8 1.3-28.75 1.3-34.34 14.76-34.34 15.2-30.34Q16.73-32.56 18.88-33.77 21.04-34.98 24.03-34.98L24.03-34.98Q28.18-34.98 31.14-32.71 34.09-30.44 35.66-26.37 37.23-22.31 37.23-16.88L37.23-16.88 37.23-16.22Q37.23-11.14 35.66-7.35 34.09-3.55 31.12-1.44 28.15 0.67 23.96 0.67L23.96 0.67Q21.2 0.67 19.09-0.33 16.98-1.33 15.49-3.27L15.49-3.27 15.49 6.67 19.96 7.62 19.96 13.2ZM21.2-6.44L21.2-6.44Q24.76-6.44 26.36-9.08 27.96-11.71 27.96-16.22L27.96-16.22 27.96-16.88Q27.96-20.15 27.23-22.58 26.5-25.01 24.99-26.39 23.49-27.77 21.14-27.77L21.14-27.77Q19.23-27.77 17.79-26.91 16.35-26.06 15.49-24.47L15.49-24.47 15.49-9.43Q16.35-7.97 17.79-7.2 19.23-6.44 21.2-6.44ZM58.65 0L40.47 0 40.47-5.55 44.94-6.51 44.94-27.8 39.99-28.75 39.99-34.34 54.21-34.34 54.21-6.51 58.65-5.55 58.65 0ZM54.21-41.61L44.62-41.61 44.62-49.51 54.21-49.51 54.21-41.61ZM75.22 0.67L75.22 0.67Q70.43 0.67 67.84-1.97 65.25-4.6 65.25-10.31L65.25-10.31 65.25-27.83 60.52-27.83 60.52-34.34 65.25-34.34 65.25-42.75 74.49-42.75 74.49-34.34 80.81-34.34 80.81-27.83 74.49-27.83 74.49-10.35Q74.49-8.35 75.33-7.49 76.17-6.63 77.63-6.63L77.63-6.63Q78.39-6.63 79.28-6.74 80.17-6.86 80.81-6.98L80.81-6.98 81.6-0.29Q80.17 0.13 78.5 0.4 76.84 0.67 75.22 0.67Z" transform="translate(-1.2999999523162842, 49.5099983215332)"></path></g></g></g> </g><defs v-gra="od"></defs></g></svg>